<?xml version="1.0" encoding="UTF-8"?>
<svg xmlns="http://www.w3.org/2000/svg" width="1920" height="1080" viewBox="0 0 1920 1080">
  <defs>
    <filter id="shadow" x="-20%" y="-20%" width="140%" height="140%">
      <feDropShadow dx="0" dy="24" stdDeviation="28" flood-color="#16211d" flood-opacity="0.16"/>
    </filter>
  </defs>
  <g transform="scale(0.5625)">
    
    <rect x="0" y="0" width="1920" height="1080" fill="#f8f5ee"/>
    <circle cx="210" cy="120" r="360" fill="#e6d5bd" opacity="0.38"/>
    <circle cx="1790" cy="980" r="430" fill="#c7d4ca" opacity="0.38"/>
    <path d="M0 780 C420 700 620 850 1040 770 C1420 690 1620 760 1920 700 L1920 1080 L0 1080 Z" fill="#eadfcd" opacity="0.45"/>
    <g opacity="0.22" stroke="#d8c8ae" stroke-width="1">
      <line x1="0" y1="0" x2="0" y2="1080"/><line x1="96" y1="0" x2="96" y2="1080"/><line x1="192" y1="0" x2="192" y2="1080"/><line x1="288" y1="0" x2="288" y2="1080"/><line x1="384" y1="0" x2="384" y2="1080"/><line x1="480" y1="0" x2="480" y2="1080"/><line x1="576" y1="0" x2="576" y2="1080"/><line x1="672" y1="0" x2="672" y2="1080"/><line x1="768" y1="0" x2="768" y2="1080"/><line x1="864" y1="0" x2="864" y2="1080"/><line x1="960" y1="0" x2="960" y2="1080"/><line x1="1056" y1="0" x2="1056" y2="1080"/><line x1="1152" y1="0" x2="1152" y2="1080"/><line x1="1248" y1="0" x2="1248" y2="1080"/><line x1="1344" y1="0" x2="1344" y2="1080"/><line x1="1440" y1="0" x2="1440" y2="1080"/><line x1="1536" y1="0" x2="1536" y2="1080"/><line x1="1632" y1="0" x2="1632" y2="1080"/><line x1="1728" y1="0" x2="1728" y2="1080"/><line x1="1824" y1="0" x2="1824" y2="1080"/><line x1="1920" y1="0" x2="1920" y2="1080"/>
      <line x1="0" y1="0" x2="1920" y2="0"/><line x1="0" y1="90" x2="1920" y2="90"/><line x1="0" y1="180" x2="1920" y2="180"/><line x1="0" y1="270" x2="1920" y2="270"/><line x1="0" y1="360" x2="1920" y2="360"/><line x1="0" y1="450" x2="1920" y2="450"/><line x1="0" y1="540" x2="1920" y2="540"/><line x1="0" y1="630" x2="1920" y2="630"/><line x1="0" y1="720" x2="1920" y2="720"/><line x1="0" y1="810" x2="1920" y2="810"/><line x1="0" y1="900" x2="1920" y2="900"/><line x1="0" y1="990" x2="1920" y2="990"/><line x1="0" y1="1080" x2="1920" y2="1080"/>
    </g>
  
    
      
    
    <g>
      <rect x="120" y="90" width="300" height="42" rx="21" fill="#22322b" opacity="0.94"/>
      <text x="150" y="118" fill="#f8f5ee" font-family="Geist, Inter, Arial, sans-serif" font-size="22" font-weight="700" letter-spacing="1.4">STEP 3</text>
    </g>
  
    <text x="120" y="245" fill="#16211d" font-family="Geist, Inter, Arial, sans-serif" font-size="66" font-weight="850">Generate the dispatch</text>
<text x="120" y="321" fill="#16211d" font-family="Geist, Inter, Arial, sans-serif" font-size="66" font-weight="850">pack</text>
    <text x="124" y="421" fill="#5a685f" font-family="Geist, Inter, Arial, sans-serif" font-size="29" font-weight="550">Barcode PDFs, GST-aware invoices, and</text>
<text x="124" y="460" fill="#5a685f" font-family="Geist, Inter, Arial, sans-serif" font-size="29" font-weight="550">invoice-linked packing lists are created from</text>
<text x="124" y="499" fill="#5a685f" font-family="Geist, Inter, Arial, sans-serif" font-size="29" font-weight="550">the confirmed PO.</text>
  
      <g transform="translate(880 250)">
        
    <g>
      <rect x="0" y="0" width="360" height="190" rx="18" fill="#fffdf8" stroke="#d8c8ae" stroke-width="2"/>
      <rect x="28" y="28" width="54" height="54" rx="14" fill="#22322b" opacity="0.95"/>
      <path d="M42 56 L55 69 L74 43" fill="none" stroke="#f8f5ee" stroke-width="7" stroke-linecap="round" stroke-linejoin="round"/>
      <text x="104" y="55" fill="#16211d" font-family="Geist, Inter, Arial, sans-serif" font-size="28" font-weight="800">Barcodes</text>
      <text x="28" y="118" fill="#5a685f" font-family="Geist, Inter, Arial, sans-serif" font-size="21" font-weight="600">ready-to-print label PDFs</text>
    </g>
  
        
    <g>
      <rect x="390" y="0" width="360" height="190" rx="18" fill="#fffdf8" stroke="#d8c8ae" stroke-width="2"/>
      <rect x="418" y="28" width="54" height="54" rx="14" fill="#a06f42" opacity="0.95"/>
      <path d="M432 56 L445 69 L464 43" fill="none" stroke="#f8f5ee" stroke-width="7" stroke-linecap="round" stroke-linejoin="round"/>
      <text x="494" y="55" fill="#16211d" font-family="Geist, Inter, Arial, sans-serif" font-size="28" font-weight="800">Invoices</text>
      <text x="418" y="118" fill="#5a685f" font-family="Geist, Inter, Arial, sans-serif" font-size="21" font-weight="600">IGST or CGST + SGST handled</text>
    </g>
  
        
    <g>
      <rect x="780" y="0" width="360" height="190" rx="18" fill="#fffdf8" stroke="#d8c8ae" stroke-width="2"/>
      <rect x="808" y="28" width="54" height="54" rx="14" fill="#6f8778" opacity="0.95"/>
      <path d="M822 56 L835 69 L854 43" fill="none" stroke="#f8f5ee" stroke-width="7" stroke-linecap="round" stroke-linejoin="round"/>
      <text x="884" y="55" fill="#16211d" font-family="Geist, Inter, Arial, sans-serif" font-size="28" font-weight="800">Packing lists</text>
      <text x="808" y="118" fill="#5a685f" font-family="Geist, Inter, Arial, sans-serif" font-size="21" font-weight="600">linked to invoice snapshots</text>
    </g>
  
        <path d="M135 250 C240 335 420 335 530 250" fill="none" stroke="#d8c8ae" stroke-width="10" stroke-linecap="round"/>
        <path d="M525 250 C630 335 810 335 920 250" fill="none" stroke="#d8c8ae" stroke-width="10" stroke-linecap="round"/>
      </g>
    
    <text x="120" y="1000" fill="#5a685f" font-family="Geist, Inter, Arial, sans-serif" font-size="22" font-weight="700">kira</text>
    <text x="1710" y="1000" fill="#5a685f" font-family="Geist, Inter, Arial, sans-serif" font-size="22" font-weight="700">6/8</text>
  </g>
</svg>