<?xml version="1.0" encoding="UTF-8"?>
<svg xmlns="http://www.w3.org/2000/svg" width="1920" height="1080" viewBox="0 0 1920 1080">
  <defs>
    <filter id="shadow" x="-20%" y="-20%" width="140%" height="140%">
      <feDropShadow dx="0" dy="24" stdDeviation="28" flood-color="#16211d" flood-opacity="0.16"/>
    </filter>
  </defs>
  <g transform="scale(0.5625)">
    
    <rect x="0" y="0" width="1920" height="1080" fill="#f8f5ee"/>
    <circle cx="210" cy="120" r="360" fill="#e6d5bd" opacity="0.38"/>
    <circle cx="1790" cy="980" r="430" fill="#c7d4ca" opacity="0.38"/>
    <path d="M0 780 C420 700 620 850 1040 770 C1420 690 1620 760 1920 700 L1920 1080 L0 1080 Z" fill="#eadfcd" opacity="0.45"/>
    <g opacity="0.22" stroke="#d8c8ae" stroke-width="1">
      <line x1="0" y1="0" x2="0" y2="1080"/><line x1="96" y1="0" x2="96" y2="1080"/><line x1="192" y1="0" x2="192" y2="1080"/><line x1="288" y1="0" x2="288" y2="1080"/><line x1="384" y1="0" x2="384" y2="1080"/><line x1="480" y1="0" x2="480" y2="1080"/><line x1="576" y1="0" x2="576" y2="1080"/><line x1="672" y1="0" x2="672" y2="1080"/><line x1="768" y1="0" x2="768" y2="1080"/><line x1="864" y1="0" x2="864" y2="1080"/><line x1="960" y1="0" x2="960" y2="1080"/><line x1="1056" y1="0" x2="1056" y2="1080"/><line x1="1152" y1="0" x2="1152" y2="1080"/><line x1="1248" y1="0" x2="1248" y2="1080"/><line x1="1344" y1="0" x2="1344" y2="1080"/><line x1="1440" y1="0" x2="1440" y2="1080"/><line x1="1536" y1="0" x2="1536" y2="1080"/><line x1="1632" y1="0" x2="1632" y2="1080"/><line x1="1728" y1="0" x2="1728" y2="1080"/><line x1="1824" y1="0" x2="1824" y2="1080"/><line x1="1920" y1="0" x2="1920" y2="1080"/>
      <line x1="0" y1="0" x2="1920" y2="0"/><line x1="0" y1="90" x2="1920" y2="90"/><line x1="0" y1="180" x2="1920" y2="180"/><line x1="0" y1="270" x2="1920" y2="270"/><line x1="0" y1="360" x2="1920" y2="360"/><line x1="0" y1="450" x2="1920" y2="450"/><line x1="0" y1="540" x2="1920" y2="540"/><line x1="0" y1="630" x2="1920" y2="630"/><line x1="0" y1="720" x2="1920" y2="720"/><line x1="0" y1="810" x2="1920" y2="810"/><line x1="0" y1="900" x2="1920" y2="900"/><line x1="0" y1="990" x2="1920" y2="990"/><line x1="0" y1="1080" x2="1920" y2="1080"/>
    </g>
  
    
      
    
    <g>
      <rect x="120" y="90" width="502" height="42" rx="21" fill="#22322b" opacity="0.94"/>
      <text x="150" y="118" fill="#f8f5ee" font-family="Geist, Inter, Arial, sans-serif" font-size="22" font-weight="700" letter-spacing="1.4">KIRA FOR D2C APPAREL OPS</text>
    </g>
  
    <text x="120" y="245" fill="#16211d" font-family="Geist, Inter, Arial, sans-serif" font-size="66" font-weight="850">Marketplace POs to</text>
<text x="120" y="321" fill="#16211d" font-family="Geist, Inter, Arial, sans-serif" font-size="66" font-weight="850">dispatch documents</text>
    <text x="124" y="421" fill="#5a685f" font-family="Geist, Inter, Arial, sans-serif" font-size="29" font-weight="550">Upload a buyer PO. Review extracted data.</text>
<text x="124" y="460" fill="#5a685f" font-family="Geist, Inter, Arial, sans-serif" font-size="29" font-weight="550">Generate barcodes, invoices, and packing lists</text>
<text x="124" y="499" fill="#5a685f" font-family="Geist, Inter, Arial, sans-serif" font-size="29" font-weight="550">in minutes.</text>
  
      <g transform="translate(1170 170)">
        <rect x="0" y="0" width="540" height="650" rx="30" fill="#fffdf8" stroke="#d8c8ae" stroke-width="2" filter="url(#shadow)"/>
        <rect x="42" y="52" width="456" height="78" rx="18" fill="#f2e6d5"/>
        <text x="76" y="102" fill="#16211d" font-family="Geist, Inter, Arial, sans-serif" font-size="26" font-weight="800">Received PO</text>
        <path d="M90 215 L450 215 M90 292 L450 292 M90 369 L450 369" stroke="#d8c8ae" stroke-width="18" stroke-linecap="round"/>
        <rect x="72" y="466" width="396" height="88" rx="18" fill="#22322b"/>
        <text x="126" y="522" fill="#f8f5ee" font-family="Geist, Inter, Arial, sans-serif" font-size="28" font-weight="800">Generate docs</text>
      </g>
    
    <text x="120" y="1000" fill="#5a685f" font-family="Geist, Inter, Arial, sans-serif" font-size="22" font-weight="700">kira</text>
    <text x="1710" y="1000" fill="#5a685f" font-family="Geist, Inter, Arial, sans-serif" font-size="22" font-weight="700">1/8</text>
  </g>
</svg>