<?xml version="1.0" encoding="UTF-8"?>
<svg xmlns="http://www.w3.org/2000/svg" width="1920" height="1080" viewBox="0 0 1920 1080">
  <defs>
    <filter id="shadow" x="-20%" y="-20%" width="140%" height="140%">
      <feDropShadow dx="0" dy="24" stdDeviation="28" flood-color="#16211d" flood-opacity="0.16"/>
    </filter>
  </defs>
  <g transform="scale(0.5625)">
    
    <rect x="0" y="0" width="1920" height="1080" fill="#f8f5ee"/>
    <circle cx="210" cy="120" r="360" fill="#e6d5bd" opacity="0.38"/>
    <circle cx="1790" cy="980" r="430" fill="#c7d4ca" opacity="0.38"/>
    <path d="M0 780 C420 700 620 850 1040 770 C1420 690 1620 760 1920 700 L1920 1080 L0 1080 Z" fill="#eadfcd" opacity="0.45"/>
    <g opacity="0.22" stroke="#d8c8ae" stroke-width="1">
      <line x1="0" y1="0" x2="0" y2="1080"/><line x1="96" y1="0" x2="96" y2="1080"/><line x1="192" y1="0" x2="192" y2="1080"/><line x1="288" y1="0" x2="288" y2="1080"/><line x1="384" y1="0" x2="384" y2="1080"/><line x1="480" y1="0" x2="480" y2="1080"/><line x1="576" y1="0" x2="576" y2="1080"/><line x1="672" y1="0" x2="672" y2="1080"/><line x1="768" y1="0" x2="768" y2="1080"/><line x1="864" y1="0" x2="864" y2="1080"/><line x1="960" y1="0" x2="960" y2="1080"/><line x1="1056" y1="0" x2="1056" y2="1080"/><line x1="1152" y1="0" x2="1152" y2="1080"/><line x1="1248" y1="0" x2="1248" y2="1080"/><line x1="1344" y1="0" x2="1344" y2="1080"/><line x1="1440" y1="0" x2="1440" y2="1080"/><line x1="1536" y1="0" x2="1536" y2="1080"/><line x1="1632" y1="0" x2="1632" y2="1080"/><line x1="1728" y1="0" x2="1728" y2="1080"/><line x1="1824" y1="0" x2="1824" y2="1080"/><line x1="1920" y1="0" x2="1920" y2="1080"/>
      <line x1="0" y1="0" x2="1920" y2="0"/><line x1="0" y1="90" x2="1920" y2="90"/><line x1="0" y1="180" x2="1920" y2="180"/><line x1="0" y1="270" x2="1920" y2="270"/><line x1="0" y1="360" x2="1920" y2="360"/><line x1="0" y1="450" x2="1920" y2="450"/><line x1="0" y1="540" x2="1920" y2="540"/><line x1="0" y1="630" x2="1920" y2="630"/><line x1="0" y1="720" x2="1920" y2="720"/><line x1="0" y1="810" x2="1920" y2="810"/><line x1="0" y1="900" x2="1920" y2="900"/><line x1="0" y1="990" x2="1920" y2="990"/><line x1="0" y1="1080" x2="1920" y2="1080"/>
    </g>
  
    
      
    
    <g>
      <rect x="120" y="90" width="300" height="42" rx="21" fill="#22322b" opacity="0.94"/>
      <text x="150" y="118" fill="#f8f5ee" font-family="Geist, Inter, Arial, sans-serif" font-size="22" font-weight="700" letter-spacing="1.4">STEP 1</text>
    </g>
  
    <text x="120" y="245" fill="#16211d" font-family="Geist, Inter, Arial, sans-serif" font-size="66" font-weight="850">Upload received</text>
<text x="120" y="321" fill="#16211d" font-family="Geist, Inter, Arial, sans-serif" font-size="66" font-weight="850">marketplace POs</text>
    <text x="124" y="421" fill="#5a685f" font-family="Geist, Inter, Arial, sans-serif" font-size="29" font-weight="550">PDF, XLS, or XLSX files enter one review queue</text>
<text x="124" y="460" fill="#5a685f" font-family="Geist, Inter, Arial, sans-serif" font-size="29" font-weight="550">with background parsing and job status.</text>
  
      
    <g filter="url(#shadow)">
      <rect x="990" y="180" width="760" height="610" rx="22" fill="#fffdf8" stroke="#d8c8ae" stroke-width="2"/>
      <rect x="990" y="180" width="760" height="78" rx="22" fill="#fbf4e8"/>
      <rect x="990" y="236" width="760" height="24" fill="#fbf4e8"/>
      <circle cx="1026" cy="218" r="8" fill="#c87b61"/>
      <circle cx="1054" cy="218" r="8" fill="#d8b656"/>
      <circle cx="1082" cy="218" r="8" fill="#74a77d"/>
      <text x="1118" y="227" fill="#16211d" font-family="Geist, Inter, Arial, sans-serif" font-size="24" font-weight="700">Received POs</text>
    </g>
  
      <rect x="1070" y="310" width="600" height="250" rx="22" fill="#f8f1e6" stroke="#d8c8ae" stroke-width="3" stroke-dasharray="14 14"/>
      <text x="1200" y="406" fill="#16211d" font-family="Geist, Inter, Arial, sans-serif" font-size="34" font-weight="850">Drop marketplace PO</text>
      <text x="1228" y="456" fill="#5a685f" font-family="Geist, Inter, Arial, sans-serif" font-size="25" font-weight="600">PDF, XLS, XLSX</text>
      <rect x="1130" y="620" width="485" height="62" rx="16" fill="#22322b"/>
      <text x="1228" y="660" fill="#f8f5ee" font-family="Geist, Inter, Arial, sans-serif" font-size="23" font-weight="800">Parsing in background</text>
    
    <text x="120" y="1000" fill="#5a685f" font-family="Geist, Inter, Arial, sans-serif" font-size="22" font-weight="700">kira</text>
    <text x="1710" y="1000" fill="#5a685f" font-family="Geist, Inter, Arial, sans-serif" font-size="22" font-weight="700">3/8</text>
  </g>
</svg>