<?xml version="1.0" encoding="UTF-8"?>
<svg xmlns="http://www.w3.org/2000/svg" width="1920" height="1080" viewBox="0 0 1920 1080">
  <defs>
    <filter id="shadow" x="-20%" y="-20%" width="140%" height="140%">
      <feDropShadow dx="0" dy="24" stdDeviation="28" flood-color="#16211d" flood-opacity="0.16"/>
    </filter>
  </defs>
  <g transform="scale(0.5625)">
    
    <rect x="0" y="0" width="1920" height="1080" fill="#f8f5ee"/>
    <circle cx="210" cy="120" r="360" fill="#e6d5bd" opacity="0.38"/>
    <circle cx="1790" cy="980" r="430" fill="#c7d4ca" opacity="0.38"/>
    <path d="M0 780 C420 700 620 850 1040 770 C1420 690 1620 760 1920 700 L1920 1080 L0 1080 Z" fill="#eadfcd" opacity="0.45"/>
    <g opacity="0.22" stroke="#d8c8ae" stroke-width="1">
      <line x1="0" y1="0" x2="0" y2="1080"/><line x1="96" y1="0" x2="96" y2="1080"/><line x1="192" y1="0" x2="192" y2="1080"/><line x1="288" y1="0" x2="288" y2="1080"/><line x1="384" y1="0" x2="384" y2="1080"/><line x1="480" y1="0" x2="480" y2="1080"/><line x1="576" y1="0" x2="576" y2="1080"/><line x1="672" y1="0" x2="672" y2="1080"/><line x1="768" y1="0" x2="768" y2="1080"/><line x1="864" y1="0" x2="864" y2="1080"/><line x1="960" y1="0" x2="960" y2="1080"/><line x1="1056" y1="0" x2="1056" y2="1080"/><line x1="1152" y1="0" x2="1152" y2="1080"/><line x1="1248" y1="0" x2="1248" y2="1080"/><line x1="1344" y1="0" x2="1344" y2="1080"/><line x1="1440" y1="0" x2="1440" y2="1080"/><line x1="1536" y1="0" x2="1536" y2="1080"/><line x1="1632" y1="0" x2="1632" y2="1080"/><line x1="1728" y1="0" x2="1728" y2="1080"/><line x1="1824" y1="0" x2="1824" y2="1080"/><line x1="1920" y1="0" x2="1920" y2="1080"/>
      <line x1="0" y1="0" x2="1920" y2="0"/><line x1="0" y1="90" x2="1920" y2="90"/><line x1="0" y1="180" x2="1920" y2="180"/><line x1="0" y1="270" x2="1920" y2="270"/><line x1="0" y1="360" x2="1920" y2="360"/><line x1="0" y1="450" x2="1920" y2="450"/><line x1="0" y1="540" x2="1920" y2="540"/><line x1="0" y1="630" x2="1920" y2="630"/><line x1="0" y1="720" x2="1920" y2="720"/><line x1="0" y1="810" x2="1920" y2="810"/><line x1="0" y1="900" x2="1920" y2="900"/><line x1="0" y1="990" x2="1920" y2="990"/><line x1="0" y1="1080" x2="1920" y2="1080"/>
    </g>
  
    
      
    
    <g>
      <rect x="120" y="90" width="300" height="42" rx="21" fill="#22322b" opacity="0.94"/>
      <text x="150" y="118" fill="#f8f5ee" font-family="Geist, Inter, Arial, sans-serif" font-size="22" font-weight="700" letter-spacing="1.4">STEP 2</text>
    </g>
  
    <text x="120" y="245" fill="#16211d" font-family="Geist, Inter, Arial, sans-serif" font-size="66" font-weight="850">Review extracted line</text>
<text x="120" y="321" fill="#16211d" font-family="Geist, Inter, Arial, sans-serif" font-size="66" font-weight="850">items before</text>
<text x="120" y="397" fill="#16211d" font-family="Geist, Inter, Arial, sans-serif" font-size="66" font-weight="850">confirmation</text>
    <text x="124" y="497" fill="#5a685f" font-family="Geist, Inter, Arial, sans-serif" font-size="29" font-weight="550">Quantities, style codes, HSN, prices, sizes, and</text>
<text x="124" y="536" fill="#5a685f" font-family="Geist, Inter, Arial, sans-serif" font-size="29" font-weight="550">buyer fields stay editable before downstream</text>
<text x="124" y="575" fill="#5a685f" font-family="Geist, Inter, Arial, sans-serif" font-size="29" font-weight="550">documents are created.</text>
  
      
    <g filter="url(#shadow)">
      <rect x="850" y="155" width="940" height="700" rx="22" fill="#fffdf8" stroke="#d8c8ae" stroke-width="2"/>
      <rect x="850" y="155" width="940" height="78" rx="22" fill="#fbf4e8"/>
      <rect x="850" y="211" width="940" height="24" fill="#fbf4e8"/>
      <circle cx="886" cy="193" r="8" fill="#c87b61"/>
      <circle cx="914" cy="193" r="8" fill="#d8b656"/>
      <circle cx="942" cy="193" r="8" fill="#74a77d"/>
      <text x="978" y="202" fill="#16211d" font-family="Geist, Inter, Arial, sans-serif" font-size="24" font-weight="700">PO review</text>
    </g>
  
      <rect x="910" y="280" width="690" height="52" fill="#efe1cc" stroke="#d8c8ae" stroke-width="1"/><text x="928" y="313" fill="#5a685f" font-family="Geist, Inter, Arial, sans-serif" font-size="18" font-weight="800">Style</text><line x1="1080" y1="280" x2="1080" y2="332" stroke="#d8c8ae" stroke-width="1"/><text x="1098" y="313" fill="#5a685f" font-family="Geist, Inter, Arial, sans-serif" font-size="18" font-weight="800">Size</text><line x1="1190" y1="280" x2="1190" y2="332" stroke="#d8c8ae" stroke-width="1"/><text x="1208" y="313" fill="#5a685f" font-family="Geist, Inter, Arial, sans-serif" font-size="18" font-weight="800">Qty</text><line x1="1300" y1="280" x2="1300" y2="332" stroke="#d8c8ae" stroke-width="1"/><text x="1318" y="313" fill="#5a685f" font-family="Geist, Inter, Arial, sans-serif" font-size="18" font-weight="800">Rate</text><line x1="1430" y1="280" x2="1430" y2="332" stroke="#d8c8ae" stroke-width="1"/><text x="1448" y="313" fill="#5a685f" font-family="Geist, Inter, Arial, sans-serif" font-size="18" font-weight="800">Status</text><rect x="910" y="332" width="690" height="58" fill="#fffdf8" stroke="#d8c8ae" stroke-width="1"/><text x="928" y="369" fill="#16211d" font-family="Geist, Inter, Arial, sans-serif" font-size="20" font-weight="600">RA-101</text><line x1="1080" y1="332" x2="1080" y2="390" stroke="#d8c8ae" stroke-width="1"/><text x="1098" y="369" fill="#16211d" font-family="Geist, Inter, Arial, sans-serif" font-size="20" font-weight="600">M</text><line x1="1190" y1="332" x2="1190" y2="390" stroke="#d8c8ae" stroke-width="1"/><text x="1208" y="369" fill="#16211d" font-family="Geist, Inter, Arial, sans-serif" font-size="20" font-weight="600">24</text><line x1="1300" y1="332" x2="1300" y2="390" stroke="#d8c8ae" stroke-width="1"/><text x="1318" y="369" fill="#16211d" font-family="Geist, Inter, Arial, sans-serif" font-size="20" font-weight="600">749</text><line x1="1430" y1="332" x2="1430" y2="390" stroke="#d8c8ae" stroke-width="1"/><text x="1448" y="369" fill="#16211d" font-family="Geist, Inter, Arial, sans-serif" font-size="20" font-weight="600">OK</text><rect x="910" y="390" width="690" height="58" fill="#f7efe3" stroke="#d8c8ae" stroke-width="1"/><text x="928" y="427" fill="#16211d" font-family="Geist, Inter, Arial, sans-serif" font-size="20" font-weight="600">RA-101</text><line x1="1080" y1="390" x2="1080" y2="448" stroke="#d8c8ae" stroke-width="1"/><text x="1098" y="427" fill="#16211d" font-family="Geist, Inter, Arial, sans-serif" font-size="20" font-weight="600">L</text><line x1="1190" y1="390" x2="1190" y2="448" stroke="#d8c8ae" stroke-width="1"/><text x="1208" y="427" fill="#16211d" font-family="Geist, Inter, Arial, sans-serif" font-size="20" font-weight="600">32</text><line x1="1300" y1="390" x2="1300" y2="448" stroke="#d8c8ae" stroke-width="1"/><text x="1318" y="427" fill="#16211d" font-family="Geist, Inter, Arial, sans-serif" font-size="20" font-weight="600">749</text><line x1="1430" y1="390" x2="1430" y2="448" stroke="#d8c8ae" stroke-width="1"/><text x="1448" y="427" fill="#16211d" font-family="Geist, Inter, Arial, sans-serif" font-size="20" font-weight="600">OK</text><rect x="910" y="448" width="690" height="58" fill="#fffdf8" stroke="#d8c8ae" stroke-width="1"/><text x="928" y="485" fill="#16211d" font-family="Geist, Inter, Arial, sans-serif" font-size="20" font-weight="600">MX-220</text><line x1="1080" y1="448" x2="1080" y2="506" stroke="#d8c8ae" stroke-width="1"/><text x="1098" y="485" fill="#16211d" font-family="Geist, Inter, Arial, sans-serif" font-size="20" font-weight="600">S</text><line x1="1190" y1="448" x2="1190" y2="506" stroke="#d8c8ae" stroke-width="1"/><text x="1208" y="485" fill="#16211d" font-family="Geist, Inter, Arial, sans-serif" font-size="20" font-weight="600">18</text><line x1="1300" y1="448" x2="1300" y2="506" stroke="#d8c8ae" stroke-width="1"/><text x="1318" y="485" fill="#16211d" font-family="Geist, Inter, Arial, sans-serif" font-size="20" font-weight="600">899</text><line x1="1430" y1="448" x2="1430" y2="506" stroke="#d8c8ae" stroke-width="1"/><text x="1448" y="485" fill="#16211d" font-family="Geist, Inter, Arial, sans-serif" font-size="20" font-weight="600">Review</text><rect x="910" y="506" width="690" height="58" fill="#f7efe3" stroke="#d8c8ae" stroke-width="1"/><text x="928" y="543" fill="#16211d" font-family="Geist, Inter, Arial, sans-serif" font-size="20" font-weight="600">CR-044</text><line x1="1080" y1="506" x2="1080" y2="564" stroke="#d8c8ae" stroke-width="1"/><text x="1098" y="543" fill="#16211d" font-family="Geist, Inter, Arial, sans-serif" font-size="20" font-weight="600">XL</text><line x1="1190" y1="506" x2="1190" y2="564" stroke="#d8c8ae" stroke-width="1"/><text x="1208" y="543" fill="#16211d" font-family="Geist, Inter, Arial, sans-serif" font-size="20" font-weight="600">12</text><line x1="1300" y1="506" x2="1300" y2="564" stroke="#d8c8ae" stroke-width="1"/><text x="1318" y="543" fill="#16211d" font-family="Geist, Inter, Arial, sans-serif" font-size="20" font-weight="600">699</text><line x1="1430" y1="506" x2="1430" y2="564" stroke="#d8c8ae" stroke-width="1"/><text x="1448" y="543" fill="#16211d" font-family="Geist, Inter, Arial, sans-serif" font-size="20" font-weight="600">OK</text>
      <rect x="1408" y="502" width="112" height="34" rx="17" fill="#fff0df" stroke="#a06f42"/>
      <text x="1432" y="526" fill="#a06f42" font-family="Geist, Inter, Arial, sans-serif" font-size="18" font-weight="900">Review</text>
      <rect x="1290" y="735" width="410" height="66" rx="16" fill="#4f8f62"/>
      <text x="1372" y="777" fill="#f8f5ee" font-family="Geist, Inter, Arial, sans-serif" font-size="24" font-weight="850">Confirm PO</text>
    
    <text x="120" y="1000" fill="#5a685f" font-family="Geist, Inter, Arial, sans-serif" font-size="22" font-weight="700">kira</text>
    <text x="1710" y="1000" fill="#5a685f" font-family="Geist, Inter, Arial, sans-serif" font-size="22" font-weight="700">4/8</text>
  </g>
</svg>