<?xml version="1.0" encoding="UTF-8"?>
<svg xmlns="http://www.w3.org/2000/svg" width="1920" height="1080" viewBox="0 0 1920 1080">
  <defs>
    <filter id="shadow" x="-20%" y="-20%" width="140%" height="140%">
      <feDropShadow dx="0" dy="24" stdDeviation="28" flood-color="#16211d" flood-opacity="0.16"/>
    </filter>
  </defs>
  <g transform="scale(0.5625)">
    
    <rect x="0" y="0" width="1920" height="1080" fill="#f8f5ee"/>
    <circle cx="210" cy="120" r="360" fill="#e6d5bd" opacity="0.38"/>
    <circle cx="1790" cy="980" r="430" fill="#c7d4ca" opacity="0.38"/>
    <path d="M0 780 C420 700 620 850 1040 770 C1420 690 1620 760 1920 700 L1920 1080 L0 1080 Z" fill="#eadfcd" opacity="0.45"/>
    <g opacity="0.22" stroke="#d8c8ae" stroke-width="1">
      <line x1="0" y1="0" x2="0" y2="1080"/><line x1="96" y1="0" x2="96" y2="1080"/><line x1="192" y1="0" x2="192" y2="1080"/><line x1="288" y1="0" x2="288" y2="1080"/><line x1="384" y1="0" x2="384" y2="1080"/><line x1="480" y1="0" x2="480" y2="1080"/><line x1="576" y1="0" x2="576" y2="1080"/><line x1="672" y1="0" x2="672" y2="1080"/><line x1="768" y1="0" x2="768" y2="1080"/><line x1="864" y1="0" x2="864" y2="1080"/><line x1="960" y1="0" x2="960" y2="1080"/><line x1="1056" y1="0" x2="1056" y2="1080"/><line x1="1152" y1="0" x2="1152" y2="1080"/><line x1="1248" y1="0" x2="1248" y2="1080"/><line x1="1344" y1="0" x2="1344" y2="1080"/><line x1="1440" y1="0" x2="1440" y2="1080"/><line x1="1536" y1="0" x2="1536" y2="1080"/><line x1="1632" y1="0" x2="1632" y2="1080"/><line x1="1728" y1="0" x2="1728" y2="1080"/><line x1="1824" y1="0" x2="1824" y2="1080"/><line x1="1920" y1="0" x2="1920" y2="1080"/>
      <line x1="0" y1="0" x2="1920" y2="0"/><line x1="0" y1="90" x2="1920" y2="90"/><line x1="0" y1="180" x2="1920" y2="180"/><line x1="0" y1="270" x2="1920" y2="270"/><line x1="0" y1="360" x2="1920" y2="360"/><line x1="0" y1="450" x2="1920" y2="450"/><line x1="0" y1="540" x2="1920" y2="540"/><line x1="0" y1="630" x2="1920" y2="630"/><line x1="0" y1="720" x2="1920" y2="720"/><line x1="0" y1="810" x2="1920" y2="810"/><line x1="0" y1="900" x2="1920" y2="900"/><line x1="0" y1="990" x2="1920" y2="990"/><line x1="0" y1="1080" x2="1920" y2="1080"/>
    </g>
  
    
      
    
    <g>
      <rect x="120" y="90" width="394" height="42" rx="21" fill="#22322b" opacity="0.94"/>
      <text x="150" y="118" fill="#f8f5ee" font-family="Geist, Inter, Arial, sans-serif" font-size="22" font-weight="700" letter-spacing="1.4">OPERATIONAL MEMORY</text>
    </g>
  
    <text x="120" y="245" fill="#16211d" font-family="Geist, Inter, Arial, sans-serif" font-size="66" font-weight="850">Every document stays</text>
<text x="120" y="321" fill="#16211d" font-family="Geist, Inter, Arial, sans-serif" font-size="66" font-weight="850">traceable</text>
    <text x="124" y="421" fill="#5a685f" font-family="Geist, Inter, Arial, sans-serif" font-size="29" font-weight="550">History views show PO references, statuses,</text>
<text x="124" y="460" fill="#5a685f" font-family="Geist, Inter, Arial, sans-serif" font-size="29" font-weight="550">files, and templates across companies and</text>
<text x="124" y="499" fill="#5a685f" font-family="Geist, Inter, Arial, sans-serif" font-size="29" font-weight="550">buyers.</text>
  
      
    <g filter="url(#shadow)">
      <rect x="860" y="160" width="900" height="660" rx="22" fill="#fffdf8" stroke="#d8c8ae" stroke-width="2"/>
      <rect x="860" y="160" width="900" height="78" rx="22" fill="#fbf4e8"/>
      <rect x="860" y="216" width="900" height="24" fill="#fbf4e8"/>
      <circle cx="896" cy="198" r="8" fill="#c87b61"/>
      <circle cx="924" cy="198" r="8" fill="#d8b656"/>
      <circle cx="952" cy="198" r="8" fill="#74a77d"/>
      <text x="988" y="207" fill="#16211d" font-family="Geist, Inter, Arial, sans-serif" font-size="24" font-weight="700">Documents</text>
    </g>
  
      <rect x="920" y="285" width="690" height="52" fill="#efe1cc" stroke="#d8c8ae" stroke-width="1"/><text x="938" y="318" fill="#5a685f" font-family="Geist, Inter, Arial, sans-serif" font-size="18" font-weight="800">PO</text><line x1="1110" y1="285" x2="1110" y2="337" stroke="#d8c8ae" stroke-width="1"/><text x="1128" y="318" fill="#5a685f" font-family="Geist, Inter, Arial, sans-serif" font-size="18" font-weight="800">Document</text><line x1="1340" y1="285" x2="1340" y2="337" stroke="#d8c8ae" stroke-width="1"/><text x="1358" y="318" fill="#5a685f" font-family="Geist, Inter, Arial, sans-serif" font-size="18" font-weight="800">Status</text><line x1="1490" y1="285" x2="1490" y2="337" stroke="#d8c8ae" stroke-width="1"/><text x="1508" y="318" fill="#5a685f" font-family="Geist, Inter, Arial, sans-serif" font-size="18" font-weight="800">File</text><rect x="920" y="337" width="690" height="58" fill="#fffdf8" stroke="#d8c8ae" stroke-width="1"/><text x="938" y="374" fill="#16211d" font-family="Geist, Inter, Arial, sans-serif" font-size="20" font-weight="600">STY-00991</text><line x1="1110" y1="337" x2="1110" y2="395" stroke="#d8c8ae" stroke-width="1"/><text x="1128" y="374" fill="#16211d" font-family="Geist, Inter, Arial, sans-serif" font-size="20" font-weight="600">Invoice</text><line x1="1340" y1="337" x2="1340" y2="395" stroke="#d8c8ae" stroke-width="1"/><text x="1358" y="374" fill="#16211d" font-family="Geist, Inter, Arial, sans-serif" font-size="20" font-weight="600">Final</text><line x1="1490" y1="337" x2="1490" y2="395" stroke="#d8c8ae" stroke-width="1"/><text x="1508" y="374" fill="#16211d" font-family="Geist, Inter, Arial, sans-serif" font-size="20" font-weight="600">PDF</text><rect x="920" y="395" width="690" height="58" fill="#f7efe3" stroke="#d8c8ae" stroke-width="1"/><text x="938" y="432" fill="#16211d" font-family="Geist, Inter, Arial, sans-serif" font-size="20" font-weight="600">STY-00991</text><line x1="1110" y1="395" x2="1110" y2="453" stroke="#d8c8ae" stroke-width="1"/><text x="1128" y="432" fill="#16211d" font-family="Geist, Inter, Arial, sans-serif" font-size="20" font-weight="600">Packing list</text><line x1="1340" y1="395" x2="1340" y2="453" stroke="#d8c8ae" stroke-width="1"/><text x="1358" y="432" fill="#16211d" font-family="Geist, Inter, Arial, sans-serif" font-size="20" font-weight="600">Ready</text><line x1="1490" y1="395" x2="1490" y2="453" stroke="#d8c8ae" stroke-width="1"/><text x="1508" y="432" fill="#16211d" font-family="Geist, Inter, Arial, sans-serif" font-size="20" font-weight="600">PDF</text><rect x="920" y="453" width="690" height="58" fill="#fffdf8" stroke="#d8c8ae" stroke-width="1"/><text x="938" y="490" fill="#16211d" font-family="Geist, Inter, Arial, sans-serif" font-size="20" font-weight="600">AJ-77512</text><line x1="1110" y1="453" x2="1110" y2="511" stroke="#d8c8ae" stroke-width="1"/><text x="1128" y="490" fill="#16211d" font-family="Geist, Inter, Arial, sans-serif" font-size="20" font-weight="600">Barcode labels</text><line x1="1340" y1="453" x2="1340" y2="511" stroke="#d8c8ae" stroke-width="1"/><text x="1358" y="490" fill="#16211d" font-family="Geist, Inter, Arial, sans-serif" font-size="20" font-weight="600">Ready</text><line x1="1490" y1="453" x2="1490" y2="511" stroke="#d8c8ae" stroke-width="1"/><text x="1508" y="490" fill="#16211d" font-family="Geist, Inter, Arial, sans-serif" font-size="20" font-weight="600">PDF</text><rect x="920" y="511" width="690" height="58" fill="#f7efe3" stroke="#d8c8ae" stroke-width="1"/><text x="938" y="548" fill="#16211d" font-family="Geist, Inter, Arial, sans-serif" font-size="20" font-weight="600">MYN-10202</text><line x1="1110" y1="511" x2="1110" y2="569" stroke="#d8c8ae" stroke-width="1"/><text x="1128" y="548" fill="#16211d" font-family="Geist, Inter, Arial, sans-serif" font-size="20" font-weight="600">Invoice</text><line x1="1340" y1="511" x2="1340" y2="569" stroke="#d8c8ae" stroke-width="1"/><text x="1358" y="548" fill="#16211d" font-family="Geist, Inter, Arial, sans-serif" font-size="20" font-weight="600">Draft</text><line x1="1490" y1="511" x2="1490" y2="569" stroke="#d8c8ae" stroke-width="1"/><text x="1508" y="548" fill="#16211d" font-family="Geist, Inter, Arial, sans-serif" font-size="20" font-weight="600">Open</text>
      <text x="966" y="727" fill="#5a685f" font-family="Geist, Inter, Arial, sans-serif" font-size="24" font-weight="650">Company-scoped, buyer-aware, and traceable.</text>
    
    <text x="120" y="1000" fill="#5a685f" font-family="Geist, Inter, Arial, sans-serif" font-size="22" font-weight="700">kira</text>
    <text x="1710" y="1000" fill="#5a685f" font-family="Geist, Inter, Arial, sans-serif" font-size="22" font-weight="700">7/8</text>
  </g>
</svg>